# xmcd CD database file generated by LOLA_Freedb v0.9beta0
# 
# Track frame offsets:
#      150
#      15165
#      28983
#      43251
#      55851
#      75995
#      89972
#      113167
#      126445
#      139768
#      155179
#      171256
#      187756
#      200212
# 
# Disc length: 2976 seconds
# 
# Revision: 0 
# Processed by: cddbd v1.5.2PL0 Copyright (c) Steve Scherf et al.
# Submitted via: LOLA_Freedb v0.9beta0
# 
DISCID=c60b9e0e
DTITLE=GRUPO PARAFOLCLORICO ECO MARAJOARA - MARAJO ILHA ABENCOADA
DYEAR=2011
DGENRE=
TTITLE0=GRUPO PARAFOLCLORICO ECO MARAJOARA - MARAJO ILHA ABENCOADA
TTITLE1=GRUPO PARAFOLCLORICO ECO MARAJOARA - DECLARACAO DE AMOR A SOURE
TTITLE2=GRUPO PARAFOLCLORICO ECO MARAJOARA - TERRA DOS NHEEGAIBAS
TTITLE3=GRUPO PARAFOLCLORICO ECO MARAJOARA - SOURE ES MINHA CIDADE
TTITLE4=GRUPO PARAFOLCLORICO ECO MARAJOARA - INVERNADA MARAJOARA
TTITLE5=GRUPO PARAFOLCLORICO ECO MARAJOARA - O CANTAR DO CURIO
TTITLE6=GRUPO PARAFOLCLORICO ECO MARAJOARA - QUANDO EU SAIR DA FACE DA TERRA
TTITLE7=GRUPO PARAFOLCLORICO ECO MARAJOARA - COISAS DO PARA
TTITLE8=GRUPO PARAFOLCLORICO ECO MARAJOARA - O MEU MARAJO QUERIDO
TTITLE9=GRUPO PARAFOLCLORICO ECO MARAJOARA - LENDAS DE SOURE
TTITLE10=GRUPO PARAFOLCLORICO ECO MARAJOARA - CRENDICES
TTITLE11=GRUPO PARAFOLCLORICO ECO MARAJOARA - LOUCA SAUDADE
TTITLE12=GRUPO PARAFOLCLORICO ECO MARAJOARA - TOADA DE PESCADOR
TTITLE13=GRUPO PARAFOLCLORICO ECO MARAJOARA - POUT POURRI DE CARIMBO
EXTD=
EXTT0=
EXTT1=
EXTT2=
EXTT3=
EXTT4=
EXTT5=
EXTT6=
EXTT7=
EXTT8=
EXTT9=
EXTT10=
EXTT11=
EXTT12=
EXTT13=
PLAYORDER=
